<mxfile host="Electron" agent="Mozilla/5.0 (Macintosh; Intel Mac OS X 10_15_7) AppleWebKit/537.36 (KHTML, like Gecko) draw.io/26.2.2 Chrome/134.0.6998.178 Electron/35.1.2 Safari/537.36" version="26.2.2">
  <diagram name="페이지-1" id="5DXgDa4no1LvpS48WtVT">
    <mxGraphModel dx="1168" dy="528" grid="1" gridSize="10" guides="1" tooltips="1" connect="1" arrows="1" fold="1" page="1" pageScale="1" pageWidth="827" pageHeight="1169" background="#ffffff" math="0" shadow="0">
      <root>
        <mxCell id="0" />
        <mxCell id="1" parent="0" />
        <mxCell id="atCHeXOuL6zEydp5RKnP-1" value="&lt;font style=&quot;font-size: 10px;&quot;&gt;게임 시작 상태&lt;/font&gt;" style="rounded=1;whiteSpace=wrap;html=1;fillColor=#f5f5f5;strokeColor=#666666;fontColor=#333333;fontSize=12;" parent="1" vertex="1">
          <mxGeometry x="400" y="50" width="80" height="30" as="geometry" />
        </mxCell>
        <mxCell id="atCHeXOuL6zEydp5RKnP-2" value="" style="endArrow=classic;html=1;rounded=0;exitX=0.5;exitY=1;exitDx=0;exitDy=0;strokeColor=#000000;" parent="1" source="atCHeXOuL6zEydp5RKnP-1" target="atCHeXOuL6zEydp5RKnP-3" edge="1">
          <mxGeometry width="50" height="50" relative="1" as="geometry">
            <mxPoint x="400" y="230" as="sourcePoint" />
            <mxPoint x="400" y="120" as="targetPoint" />
          </mxGeometry>
        </mxCell>
        <mxCell id="atCHeXOuL6zEydp5RKnP-50" value="" style="edgeStyle=orthogonalEdgeStyle;rounded=0;orthogonalLoop=1;jettySize=auto;html=1;" parent="1" source="atCHeXOuL6zEydp5RKnP-3" target="atCHeXOuL6zEydp5RKnP-7" edge="1">
          <mxGeometry relative="1" as="geometry" />
        </mxCell>
        <mxCell id="atCHeXOuL6zEydp5RKnP-3" value="&lt;font style=&quot;font-size: 10px;&quot;&gt;PrintWelcome&lt;br&gt;Message()&lt;/font&gt;" style="rounded=1;whiteSpace=wrap;html=1;fillColor=#f5f5f5;strokeColor=#666666;fontColor=#333333;fontSize=12;" parent="1" vertex="1">
          <mxGeometry x="390" y="120" width="100" height="40" as="geometry" />
        </mxCell>
        <mxCell id="atCHeXOuL6zEydp5RKnP-6" value="" style="endArrow=classic;html=1;rounded=0;strokeColor=#000000;" parent="1" target="atCHeXOuL6zEydp5RKnP-7" edge="1">
          <mxGeometry width="50" height="50" relative="1" as="geometry">
            <mxPoint x="440" y="160" as="sourcePoint" />
            <mxPoint x="400" y="200" as="targetPoint" />
          </mxGeometry>
        </mxCell>
        <mxCell id="atCHeXOuL6zEydp5RKnP-7" value="&lt;span style=&quot;font-size: 10px;&quot;&gt;명령어 입력&lt;br&gt;(inputString)&lt;/span&gt;" style="rounded=1;whiteSpace=wrap;html=1;fillColor=#f5f5f5;strokeColor=#666666;fontColor=#333333;fontSize=12;" parent="1" vertex="1">
          <mxGeometry x="410" y="200" width="60" height="40" as="geometry" />
        </mxCell>
        <mxCell id="atCHeXOuL6zEydp5RKnP-8" value="" style="endArrow=classic;html=1;rounded=0;strokeColor=#000000;entryX=0;entryY=0.5;entryDx=0;entryDy=0;exitX=0.5;exitY=1;exitDx=0;exitDy=0;" parent="1" source="atCHeXOuL6zEydp5RKnP-10" target="atCHeXOuL6zEydp5RKnP-9" edge="1">
          <mxGeometry width="50" height="50" relative="1" as="geometry">
            <mxPoint x="480" y="220" as="sourcePoint" />
            <mxPoint x="520" y="220" as="targetPoint" />
          </mxGeometry>
        </mxCell>
        <mxCell id="atCHeXOuL6zEydp5RKnP-9" value="종료 메시지 출력 + 종료" style="rounded=1;whiteSpace=wrap;html=1;fillColor=#f5f5f5;strokeColor=#666666;fontColor=#333333;fontSize=12;" parent="1" vertex="1">
          <mxGeometry x="580" y="280" width="100" height="30" as="geometry" />
        </mxCell>
        <mxCell id="atCHeXOuL6zEydp5RKnP-15" value="" style="endArrow=classic;html=1;rounded=0;strokeColor=#000000;entryX=0.5;entryY=0;entryDx=0;entryDy=0;exitX=1;exitY=0.75;exitDx=0;exitDy=0;" parent="1" source="atCHeXOuL6zEydp5RKnP-7" target="atCHeXOuL6zEydp5RKnP-10" edge="1">
          <mxGeometry width="50" height="50" relative="1" as="geometry">
            <mxPoint x="480" y="220" as="sourcePoint" />
            <mxPoint x="560" y="140" as="targetPoint" />
          </mxGeometry>
        </mxCell>
        <mxCell id="atCHeXOuL6zEydp5RKnP-17" value="" style="edgeStyle=orthogonalEdgeStyle;rounded=0;orthogonalLoop=1;jettySize=auto;html=1;" parent="1" source="atCHeXOuL6zEydp5RKnP-10" target="atCHeXOuL6zEydp5RKnP-9" edge="1">
          <mxGeometry relative="1" as="geometry" />
        </mxCell>
        <mxCell id="atCHeXOuL6zEydp5RKnP-18" style="edgeStyle=orthogonalEdgeStyle;rounded=0;orthogonalLoop=1;jettySize=auto;html=1;exitX=0.75;exitY=0;exitDx=0;exitDy=0;" parent="1" source="atCHeXOuL6zEydp5RKnP-10" edge="1">
          <mxGeometry relative="1" as="geometry">
            <mxPoint x="538" y="250" as="targetPoint" />
          </mxGeometry>
        </mxCell>
        <mxCell id="atCHeXOuL6zEydp5RKnP-10" value="exit 입력&lt;div&gt;&lt;br&gt;&lt;/div&gt;" style="text;html=1;align=center;verticalAlign=top;whiteSpace=wrap;rounded=1;fontColor=default;fontSize=10;fillColor=#999999;labelBackgroundColor=none;labelBorderColor=none;textShadow=0;perimeterSpacing=0;strokeWidth=0;arcSize=30;" parent="1" vertex="1">
          <mxGeometry x="500" y="250" width="50" height="20" as="geometry" />
        </mxCell>
        <mxCell id="atCHeXOuL6zEydp5RKnP-19" value="명령어 오류&lt;br&gt;(다시 입력)" style="rounded=1;whiteSpace=wrap;html=1;fillColor=#f5f5f5;strokeColor=#666666;fontColor=#333333;fontSize=12;" parent="1" vertex="1">
          <mxGeometry x="580" y="150" width="140" height="40" as="geometry" />
        </mxCell>
        <mxCell id="atCHeXOuL6zEydp5RKnP-23" value="" style="edgeStyle=orthogonalEdgeStyle;rounded=0;orthogonalLoop=1;jettySize=auto;html=1;" parent="1" source="atCHeXOuL6zEydp5RKnP-20" target="atCHeXOuL6zEydp5RKnP-10" edge="1">
          <mxGeometry relative="1" as="geometry" />
        </mxCell>
        <mxCell id="atCHeXOuL6zEydp5RKnP-20" value="잘못된 입력" style="text;html=1;align=center;verticalAlign=top;whiteSpace=wrap;rounded=1;fontColor=default;fontSize=10;fillColor=#999999;labelBackgroundColor=none;labelBorderColor=none;textShadow=0;perimeterSpacing=0;strokeWidth=0;arcSize=30;" parent="1" vertex="1">
          <mxGeometry x="510" y="120" width="60" height="20" as="geometry" />
        </mxCell>
        <mxCell id="atCHeXOuL6zEydp5RKnP-22" value="" style="endArrow=classic;html=1;rounded=0;strokeColor=#000000;entryX=0.5;entryY=1;entryDx=0;entryDy=0;exitX=1;exitY=0.25;exitDx=0;exitDy=0;" parent="1" source="atCHeXOuL6zEydp5RKnP-7" target="atCHeXOuL6zEydp5RKnP-20" edge="1">
          <mxGeometry width="50" height="50" relative="1" as="geometry">
            <mxPoint x="490" y="260" as="sourcePoint" />
            <mxPoint x="535" y="260" as="targetPoint" />
          </mxGeometry>
        </mxCell>
        <mxCell id="atCHeXOuL6zEydp5RKnP-25" value="" style="endArrow=classic;html=1;rounded=0;strokeColor=#000000;entryX=0.5;entryY=0;entryDx=0;entryDy=0;exitX=1;exitY=0.5;exitDx=0;exitDy=0;" parent="1" source="atCHeXOuL6zEydp5RKnP-20" target="atCHeXOuL6zEydp5RKnP-19" edge="1">
          <mxGeometry width="50" height="50" relative="1" as="geometry">
            <mxPoint x="490" y="220" as="sourcePoint" />
            <mxPoint x="525" y="210" as="targetPoint" />
          </mxGeometry>
        </mxCell>
        <mxCell id="atCHeXOuL6zEydp5RKnP-27" value="" style="endArrow=classic;html=1;rounded=0;strokeColor=#000000;exitX=0;exitY=1;exitDx=0;exitDy=0;entryX=1;entryY=0.25;entryDx=0;entryDy=0;" parent="1" source="atCHeXOuL6zEydp5RKnP-19" target="atCHeXOuL6zEydp5RKnP-7" edge="1">
          <mxGeometry width="50" height="50" relative="1" as="geometry">
            <mxPoint x="550" y="200" as="sourcePoint" />
            <mxPoint x="490" y="220" as="targetPoint" />
          </mxGeometry>
        </mxCell>
        <mxCell id="atCHeXOuL6zEydp5RKnP-32" value="" style="endArrow=classic;html=1;rounded=0;strokeColor=#000000;exitX=0;exitY=0.5;exitDx=0;exitDy=0;" parent="1" source="atCHeXOuL6zEydp5RKnP-51" edge="1">
          <mxGeometry width="50" height="50" relative="1" as="geometry">
            <mxPoint x="310" y="220" as="sourcePoint" />
            <mxPoint x="280" y="220" as="targetPoint" />
          </mxGeometry>
        </mxCell>
        <mxCell id="atCHeXOuL6zEydp5RKnP-33" value="startGame()&lt;div&gt;printStartGuide()&lt;/div&gt;" style="rounded=1;whiteSpace=wrap;html=1;fillColor=#f5f5f5;strokeColor=#666666;fontColor=#333333;fontSize=12;" parent="1" vertex="1">
          <mxGeometry x="160" y="200" width="120" height="40" as="geometry" />
        </mxCell>
        <mxCell id="atCHeXOuL6zEydp5RKnP-34" value="" style="endArrow=classic;html=1;rounded=0;exitX=0.5;exitY=1;exitDx=0;exitDy=0;strokeColor=#000000;" parent="1" source="atCHeXOuL6zEydp5RKnP-33" edge="1">
          <mxGeometry width="50" height="50" relative="1" as="geometry">
            <mxPoint x="330" y="230" as="sourcePoint" />
            <mxPoint x="220" y="280" as="targetPoint" />
          </mxGeometry>
        </mxCell>
        <mxCell id="atCHeXOuL6zEydp5RKnP-42" value="" style="edgeStyle=orthogonalEdgeStyle;rounded=0;orthogonalLoop=1;jettySize=auto;html=1;" parent="1" source="atCHeXOuL6zEydp5RKnP-35" target="atCHeXOuL6zEydp5RKnP-41" edge="1">
          <mxGeometry relative="1" as="geometry" />
        </mxCell>
        <mxCell id="atCHeXOuL6zEydp5RKnP-35" value="게임 진행 상태" style="rounded=1;whiteSpace=wrap;html=1;fillColor=#f5f5f5;strokeColor=#666666;fontColor=#333333;fontSize=12;" parent="1" vertex="1">
          <mxGeometry x="160" y="280" width="120" height="40" as="geometry" />
        </mxCell>
        <mxCell id="atCHeXOuL6zEydp5RKnP-36" value="dex 입력&lt;div&gt;&lt;br&gt;&lt;/div&gt;" style="text;html=1;align=center;verticalAlign=top;whiteSpace=wrap;rounded=1;fontColor=default;fontSize=10;fillColor=#999999;labelBackgroundColor=none;labelBorderColor=none;textShadow=0;perimeterSpacing=0;strokeWidth=0;arcSize=30;" parent="1" vertex="1">
          <mxGeometry x="70" y="290" width="50" height="20" as="geometry" />
        </mxCell>
        <mxCell id="atCHeXOuL6zEydp5RKnP-37" value="" style="endArrow=classic;html=1;rounded=0;exitX=0;exitY=0.5;exitDx=0;exitDy=0;strokeColor=#000000;entryX=1;entryY=0.5;entryDx=0;entryDy=0;" parent="1" source="atCHeXOuL6zEydp5RKnP-35" target="atCHeXOuL6zEydp5RKnP-36" edge="1">
          <mxGeometry width="50" height="50" relative="1" as="geometry">
            <mxPoint x="330" y="230" as="sourcePoint" />
            <mxPoint x="290" y="230" as="targetPoint" />
          </mxGeometry>
        </mxCell>
        <mxCell id="atCHeXOuL6zEydp5RKnP-38" value="도감 출력&lt;br&gt;(Monster 객체)" style="rounded=1;whiteSpace=wrap;html=1;fillColor=#f5f5f5;strokeColor=#666666;fontColor=#333333;fontSize=12;" parent="1" vertex="1">
          <mxGeometry x="20" y="200" width="120" height="40" as="geometry" />
        </mxCell>
        <mxCell id="atCHeXOuL6zEydp5RKnP-39" value="" style="endArrow=classic;html=1;rounded=0;exitX=0.5;exitY=0;exitDx=0;exitDy=0;strokeColor=#000000;entryX=0.5;entryY=1;entryDx=0;entryDy=0;" parent="1" source="atCHeXOuL6zEydp5RKnP-36" target="atCHeXOuL6zEydp5RKnP-38" edge="1">
          <mxGeometry width="50" height="50" relative="1" as="geometry">
            <mxPoint x="170" y="310" as="sourcePoint" />
            <mxPoint x="130" y="310" as="targetPoint" />
          </mxGeometry>
        </mxCell>
        <mxCell id="atCHeXOuL6zEydp5RKnP-40" value="" style="endArrow=classic;html=1;rounded=0;exitX=0.5;exitY=1;exitDx=0;exitDy=0;strokeColor=#000000;entryX=0;entryY=0.5;entryDx=0;entryDy=0;" parent="1" source="atCHeXOuL6zEydp5RKnP-38" target="atCHeXOuL6zEydp5RKnP-35" edge="1">
          <mxGeometry width="50" height="50" relative="1" as="geometry">
            <mxPoint x="105" y="300" as="sourcePoint" />
            <mxPoint x="90" y="250" as="targetPoint" />
          </mxGeometry>
        </mxCell>
        <mxCell id="atCHeXOuL6zEydp5RKnP-41" value="go number 입력" style="text;html=1;align=center;verticalAlign=top;whiteSpace=wrap;rounded=1;fontColor=default;fontSize=10;fillColor=#999999;labelBackgroundColor=none;labelBorderColor=none;textShadow=0;perimeterSpacing=0;strokeWidth=0;arcSize=17;" parent="1" vertex="1">
          <mxGeometry x="140" y="340" width="55" height="30" as="geometry" />
        </mxCell>
        <mxCell id="atCHeXOuL6zEydp5RKnP-43" value="" style="endArrow=classic;html=1;rounded=0;strokeColor=#000000;entryX=0.75;entryY=0;entryDx=0;entryDy=0;exitX=0.5;exitY=1;exitDx=0;exitDy=0;" parent="1" source="atCHeXOuL6zEydp5RKnP-35" target="atCHeXOuL6zEydp5RKnP-41" edge="1">
          <mxGeometry width="50" height="50" relative="1" as="geometry">
            <mxPoint x="230" y="260" as="sourcePoint" />
            <mxPoint x="230" y="290" as="targetPoint" />
          </mxGeometry>
        </mxCell>
        <mxCell id="atCHeXOuL6zEydp5RKnP-54" value="" style="edgeStyle=orthogonalEdgeStyle;rounded=0;orthogonalLoop=1;jettySize=auto;html=1;" parent="1" source="atCHeXOuL6zEydp5RKnP-44" target="atCHeXOuL6zEydp5RKnP-46" edge="1">
          <mxGeometry relative="1" as="geometry" />
        </mxCell>
        <mxCell id="atCHeXOuL6zEydp5RKnP-44" value="exploreRegion()&lt;br&gt;&amp;nbsp;호출" style="rounded=1;whiteSpace=wrap;html=1;fillColor=#f5f5f5;strokeColor=#666666;fontColor=#333333;fontSize=12;" parent="1" vertex="1">
          <mxGeometry x="90" y="400" width="130" height="40" as="geometry" />
        </mxCell>
        <mxCell id="atCHeXOuL6zEydp5RKnP-45" value="" style="endArrow=classic;html=1;rounded=0;strokeColor=#000000;entryX=0.5;entryY=0;entryDx=0;entryDy=0;" parent="1" source="atCHeXOuL6zEydp5RKnP-41" target="atCHeXOuL6zEydp5RKnP-44" edge="1">
          <mxGeometry width="50" height="50" relative="1" as="geometry">
            <mxPoint x="174" y="390" as="sourcePoint" />
            <mxPoint x="198" y="370" as="targetPoint" />
          </mxGeometry>
        </mxCell>
        <mxCell id="atCHeXOuL6zEydp5RKnP-46" value="행동 입력&lt;div&gt;&lt;br&gt;&lt;/div&gt;" style="text;html=1;align=center;verticalAlign=top;whiteSpace=wrap;rounded=1;fontColor=default;fontSize=10;fillColor=#999999;labelBackgroundColor=none;labelBorderColor=none;textShadow=0;perimeterSpacing=0;strokeWidth=0;arcSize=30;" parent="1" vertex="1">
          <mxGeometry x="130" y="470" width="50" height="20" as="geometry" />
        </mxCell>
        <mxCell id="atCHeXOuL6zEydp5RKnP-47" value="" style="endArrow=classic;html=1;rounded=0;strokeColor=#000000;entryX=0.5;entryY=0;entryDx=0;entryDy=0;exitX=0.454;exitY=1;exitDx=0;exitDy=0;exitPerimeter=0;" parent="1" source="atCHeXOuL6zEydp5RKnP-44" target="atCHeXOuL6zEydp5RKnP-46" edge="1">
          <mxGeometry width="50" height="50" relative="1" as="geometry">
            <mxPoint x="229" y="480" as="sourcePoint" />
            <mxPoint x="190" y="500" as="targetPoint" />
          </mxGeometry>
        </mxCell>
        <mxCell id="atCHeXOuL6zEydp5RKnP-51" value="&lt;font style=&quot;font-size: 10px;&quot;&gt;이름 입력 &lt;br&gt;(inputName)&lt;/font&gt;" style="rounded=1;whiteSpace=wrap;html=1;fillColor=#f5f5f5;strokeColor=#666666;fontColor=#333333;fontSize=12;" parent="1" vertex="1">
          <mxGeometry x="315" y="200" width="60" height="40" as="geometry" />
        </mxCell>
        <mxCell id="atCHeXOuL6zEydp5RKnP-53" value="" style="endArrow=classic;html=1;rounded=0;strokeColor=#000000;exitX=0;exitY=0.5;exitDx=0;exitDy=0;entryX=1;entryY=0.5;entryDx=0;entryDy=0;" parent="1" source="atCHeXOuL6zEydp5RKnP-7" target="atCHeXOuL6zEydp5RKnP-51" edge="1">
          <mxGeometry width="50" height="50" relative="1" as="geometry">
            <mxPoint x="450" y="170" as="sourcePoint" />
            <mxPoint x="450" y="210" as="targetPoint" />
          </mxGeometry>
        </mxCell>
        <mxCell id="atCHeXOuL6zEydp5RKnP-55" value="Player에서&lt;br&gt;행동 메서드 호출" style="rounded=1;whiteSpace=wrap;html=1;fillColor=#f5f5f5;strokeColor=#666666;fontColor=#333333;fontSize=12;" parent="1" vertex="1">
          <mxGeometry x="103.75" y="520" width="127.5" height="40" as="geometry" />
        </mxCell>
        <mxCell id="atCHeXOuL6zEydp5RKnP-56" value="" style="endArrow=classic;html=1;rounded=0;strokeColor=#000000;entryX=0.5;entryY=0;entryDx=0;entryDy=0;exitX=0.5;exitY=1;exitDx=0;exitDy=0;" parent="1" source="atCHeXOuL6zEydp5RKnP-46" target="atCHeXOuL6zEydp5RKnP-55" edge="1">
          <mxGeometry width="50" height="50" relative="1" as="geometry">
            <mxPoint x="173" y="380" as="sourcePoint" />
            <mxPoint x="165" y="410" as="targetPoint" />
          </mxGeometry>
        </mxCell>
        <mxCell id="atCHeXOuL6zEydp5RKnP-59" value="" style="curved=1;endArrow=classic;html=1;rounded=0;" parent="1" edge="1">
          <mxGeometry width="50" height="50" relative="1" as="geometry">
            <mxPoint x="380" y="430" as="sourcePoint" />
            <mxPoint x="430" y="380" as="targetPoint" />
            <Array as="points">
              <mxPoint x="430" y="430" />
              <mxPoint x="380" y="380" />
            </Array>
          </mxGeometry>
        </mxCell>
        <mxCell id="atCHeXOuL6zEydp5RKnP-61" value="" style="curved=1;endArrow=classic;html=1;rounded=0;" parent="1" edge="1">
          <mxGeometry width="50" height="50" relative="1" as="geometry">
            <mxPoint x="380" y="430" as="sourcePoint" />
            <mxPoint x="430" y="380" as="targetPoint" />
            <Array as="points">
              <mxPoint x="430" y="430" />
              <mxPoint x="380" y="380" />
            </Array>
          </mxGeometry>
        </mxCell>
        <mxCell id="atCHeXOuL6zEydp5RKnP-66" value="" style="curved=1;endArrow=classic;html=1;rounded=0;" parent="1" edge="1">
          <mxGeometry width="50" height="50" relative="1" as="geometry">
            <mxPoint x="380" y="430" as="sourcePoint" />
            <mxPoint x="430" y="380" as="targetPoint" />
            <Array as="points">
              <mxPoint x="430" y="430" />
              <mxPoint x="380" y="380" />
            </Array>
          </mxGeometry>
        </mxCell>
        <mxCell id="atCHeXOuL6zEydp5RKnP-71" value="" style="endArrow=classic;html=1;rounded=0;strokeColor=#000000;exitX=0;exitY=0.5;exitDx=0;exitDy=0;edgeStyle=orthogonalEdgeStyle;curved=1;entryX=0.25;entryY=1;entryDx=0;entryDy=0;" parent="1" source="atCHeXOuL6zEydp5RKnP-55" target="atCHeXOuL6zEydp5RKnP-73" edge="1">
          <mxGeometry width="50" height="50" relative="1" as="geometry">
            <mxPoint x="103.7" y="570" as="sourcePoint" />
            <mxPoint x="32.45" y="400" as="targetPoint" />
            <Array as="points">
              <mxPoint x="40" y="540" />
              <mxPoint x="40" y="400" />
              <mxPoint x="32" y="400" />
            </Array>
          </mxGeometry>
        </mxCell>
        <mxCell id="atCHeXOuL6zEydp5RKnP-73" value="Player 체력, 행위 반환" style="rounded=1;whiteSpace=wrap;html=1;fillColor=#f5f5f5;strokeColor=#666666;fontColor=#333333;fontSize=12;" parent="1" vertex="1">
          <mxGeometry x="10" y="330" width="90" height="40" as="geometry" />
        </mxCell>
        <mxCell id="atCHeXOuL6zEydp5RKnP-74" value="" style="endArrow=classic;html=1;rounded=0;strokeColor=#000000;edgeStyle=orthogonalEdgeStyle;curved=1;entryX=0.667;entryY=1.05;entryDx=0;entryDy=0;entryPerimeter=0;" parent="1" source="atCHeXOuL6zEydp5RKnP-73" target="atCHeXOuL6zEydp5RKnP-35" edge="1">
          <mxGeometry width="50" height="50" relative="1" as="geometry">
            <mxPoint x="290" y="350" as="sourcePoint" />
            <mxPoint x="439" y="299.97" as="targetPoint" />
            <Array as="points">
              <mxPoint x="55" y="385" />
              <mxPoint x="240" y="385" />
            </Array>
          </mxGeometry>
        </mxCell>
        <mxCell id="atCHeXOuL6zEydp5RKnP-75" value="exit 입력&lt;div&gt;&lt;br&gt;&lt;/div&gt;" style="text;html=1;align=center;verticalAlign=top;whiteSpace=wrap;rounded=1;fontColor=default;fontSize=10;fillColor=#999999;labelBackgroundColor=none;labelBorderColor=none;textShadow=0;perimeterSpacing=0;strokeWidth=0;arcSize=30;" parent="1" vertex="1">
          <mxGeometry x="320" y="290" width="50" height="20" as="geometry" />
        </mxCell>
        <mxCell id="atCHeXOuL6zEydp5RKnP-76" value="" style="endArrow=classic;html=1;rounded=0;strokeColor=#000000;entryX=0;entryY=0.5;entryDx=0;entryDy=0;exitX=1;exitY=0.5;exitDx=0;exitDy=0;" parent="1" source="atCHeXOuL6zEydp5RKnP-35" target="atCHeXOuL6zEydp5RKnP-75" edge="1">
          <mxGeometry width="50" height="50" relative="1" as="geometry">
            <mxPoint x="230" y="330" as="sourcePoint" />
            <mxPoint x="191" y="350" as="targetPoint" />
          </mxGeometry>
        </mxCell>
        <mxCell id="atCHeXOuL6zEydp5RKnP-77" value="" style="endArrow=classic;html=1;rounded=0;strokeColor=#000000;exitX=1;exitY=0.5;exitDx=0;exitDy=0;entryX=0;entryY=0.5;entryDx=0;entryDy=0;" parent="1" source="atCHeXOuL6zEydp5RKnP-75" target="atCHeXOuL6zEydp5RKnP-78" edge="1">
          <mxGeometry width="50" height="50" relative="1" as="geometry">
            <mxPoint x="230" y="330" as="sourcePoint" />
            <mxPoint x="410" y="300" as="targetPoint" />
          </mxGeometry>
        </mxCell>
        <mxCell id="atCHeXOuL6zEydp5RKnP-78" value="메시지 출력 + 종료" style="rounded=1;whiteSpace=wrap;html=1;fillColor=#f5f5f5;strokeColor=#666666;fontColor=#333333;fontSize=12;" parent="1" vertex="1">
          <mxGeometry x="400" y="285" width="100" height="30" as="geometry" />
        </mxCell>
        <mxCell id="atCHeXOuL6zEydp5RKnP-80" value="잘못된 입력" style="text;html=1;align=center;verticalAlign=top;whiteSpace=wrap;rounded=1;fontColor=default;fontSize=10;fillColor=#999999;labelBackgroundColor=none;labelBorderColor=none;textShadow=0;perimeterSpacing=0;strokeWidth=0;arcSize=30;" parent="1" vertex="1">
          <mxGeometry x="255" y="400" width="60" height="20" as="geometry" />
        </mxCell>
        <mxCell id="atCHeXOuL6zEydp5RKnP-81" value="잘못된 입력" style="text;html=1;align=center;verticalAlign=top;whiteSpace=wrap;rounded=1;fontColor=default;fontSize=10;fillColor=#999999;labelBackgroundColor=none;labelBorderColor=none;textShadow=0;perimeterSpacing=0;strokeWidth=0;arcSize=30;" parent="1" vertex="1">
          <mxGeometry x="270" y="500" width="60" height="20" as="geometry" />
        </mxCell>
        <mxCell id="atCHeXOuL6zEydp5RKnP-82" value="" style="endArrow=classic;html=1;rounded=0;strokeColor=#000000;entryX=0;entryY=0.5;entryDx=0;entryDy=0;exitX=1;exitY=0.5;exitDx=0;exitDy=0;" parent="1" source="atCHeXOuL6zEydp5RKnP-44" target="atCHeXOuL6zEydp5RKnP-80" edge="1">
          <mxGeometry width="50" height="50" relative="1" as="geometry">
            <mxPoint x="159" y="450" as="sourcePoint" />
            <mxPoint x="165" y="480" as="targetPoint" />
          </mxGeometry>
        </mxCell>
        <mxCell id="atCHeXOuL6zEydp5RKnP-83" value="" style="endArrow=classic;html=1;rounded=0;strokeColor=#000000;entryX=0;entryY=0.5;entryDx=0;entryDy=0;exitX=1;exitY=0.5;exitDx=0;exitDy=0;" parent="1" source="atCHeXOuL6zEydp5RKnP-55" target="atCHeXOuL6zEydp5RKnP-81" edge="1">
          <mxGeometry width="50" height="50" relative="1" as="geometry">
            <mxPoint x="159" y="450" as="sourcePoint" />
            <mxPoint x="165" y="480" as="targetPoint" />
          </mxGeometry>
        </mxCell>
        <mxCell id="atCHeXOuL6zEydp5RKnP-84" value="명령어 오류&lt;br&gt;(다시 입력)" style="rounded=1;whiteSpace=wrap;html=1;fillColor=#f5f5f5;strokeColor=#666666;fontColor=#333333;fontSize=12;" parent="1" vertex="1">
          <mxGeometry x="390" y="360" width="120" height="40" as="geometry" />
        </mxCell>
        <mxCell id="atCHeXOuL6zEydp5RKnP-85" value="" style="endArrow=classic;html=1;rounded=0;strokeColor=#000000;entryX=0.557;entryY=1.038;entryDx=0;entryDy=0;exitX=1;exitY=0.5;exitDx=0;exitDy=0;entryPerimeter=0;" parent="1" source="atCHeXOuL6zEydp5RKnP-81" target="atCHeXOuL6zEydp5RKnP-84" edge="1">
          <mxGeometry width="50" height="50" relative="1" as="geometry">
            <mxPoint x="241" y="550" as="sourcePoint" />
            <mxPoint x="280" y="520" as="targetPoint" />
          </mxGeometry>
        </mxCell>
        <mxCell id="atCHeXOuL6zEydp5RKnP-86" value="" style="endArrow=classic;html=1;rounded=0;strokeColor=#000000;entryX=0;entryY=0.75;entryDx=0;entryDy=0;exitX=1;exitY=0.25;exitDx=0;exitDy=0;" parent="1" source="atCHeXOuL6zEydp5RKnP-80" target="atCHeXOuL6zEydp5RKnP-84" edge="1">
          <mxGeometry width="50" height="50" relative="1" as="geometry">
            <mxPoint x="340" y="520" as="sourcePoint" />
            <mxPoint x="467" y="412" as="targetPoint" />
          </mxGeometry>
        </mxCell>
        <mxCell id="atCHeXOuL6zEydp5RKnP-87" value="" style="endArrow=classic;html=1;rounded=0;strokeColor=#000000;entryX=1;entryY=1;entryDx=0;entryDy=0;exitX=0;exitY=0;exitDx=0;exitDy=0;" parent="1" source="atCHeXOuL6zEydp5RKnP-84" target="atCHeXOuL6zEydp5RKnP-35" edge="1">
          <mxGeometry width="50" height="50" relative="1" as="geometry">
            <mxPoint x="325" y="415" as="sourcePoint" />
            <mxPoint x="400" y="400" as="targetPoint" />
          </mxGeometry>
        </mxCell>
        <mxCell id="7nMGvKyVJ0fuZhwMj6ZT-2" value="" style="endArrow=classic;html=1;rounded=0;strokeColor=#000000;entryX=0;entryY=0.5;entryDx=0;entryDy=0;" edge="1" parent="1" target="7nMGvKyVJ0fuZhwMj6ZT-3">
          <mxGeometry width="50" height="50" relative="1" as="geometry">
            <mxPoint x="262" y="320" as="sourcePoint" />
            <mxPoint x="460" y="470" as="targetPoint" />
          </mxGeometry>
        </mxCell>
        <mxCell id="7nMGvKyVJ0fuZhwMj6ZT-3" value="모든 몬스터를&lt;br&gt;잡으면" style="text;html=1;align=center;verticalAlign=top;whiteSpace=wrap;rounded=1;fontColor=default;fontSize=10;fillColor=#999999;labelBackgroundColor=none;labelBorderColor=none;textShadow=0;perimeterSpacing=0;strokeWidth=0;arcSize=30;" vertex="1" parent="1">
          <mxGeometry x="460" y="460" width="70" height="30" as="geometry" />
        </mxCell>
        <mxCell id="7nMGvKyVJ0fuZhwMj6ZT-4" value="" style="endArrow=classic;html=1;rounded=0;strokeColor=#000000;exitX=1;exitY=0.5;exitDx=0;exitDy=0;entryX=0;entryY=0.5;entryDx=0;entryDy=0;" edge="1" parent="1" source="7nMGvKyVJ0fuZhwMj6ZT-3" target="7nMGvKyVJ0fuZhwMj6ZT-5">
          <mxGeometry width="50" height="50" relative="1" as="geometry">
            <mxPoint x="272" y="330" as="sourcePoint" />
            <mxPoint x="580" y="480" as="targetPoint" />
          </mxGeometry>
        </mxCell>
        <mxCell id="7nMGvKyVJ0fuZhwMj6ZT-5" value="승리 메시지 출력 + 종료" style="rounded=1;whiteSpace=wrap;html=1;fillColor=#f5f5f5;strokeColor=#666666;fontColor=#333333;fontSize=12;" vertex="1" parent="1">
          <mxGeometry x="580" y="460" width="100" height="30" as="geometry" />
        </mxCell>
      </root>
    </mxGraphModel>
  </diagram>
</mxfile>
